<svg width="870" height="149" viewBox="0 0 870 149" fill="#e1e1e1" xmlns="http://www.w3.org/2000/svg">
<path fill-rule="evenodd" clip-rule="evenodd" d="M138.155 52.4918C133.708 52.4918 129.361 53.7982 125.664 56.2458C121.966 58.6935 119.085 62.1724 117.383 66.2426C115.681 70.3129 115.236 74.7917 116.104 79.1127C116.971 83.4337 119.112 87.4027 122.257 90.518C125.401 93.6332 129.407 95.7547 133.768 96.6142C138.13 97.4737 142.65 97.0326 146.759 95.3466C150.867 93.6607 154.378 90.8056 156.849 87.1425C159.319 83.4793 160.638 79.1726 160.638 74.767C160.638 71.8416 160.057 68.9447 158.928 66.2418C157.798 63.5389 156.142 61.0831 154.054 59.0145C151.966 56.9459 149.488 55.3051 146.759 54.1859C144.031 53.0668 141.107 52.4911 138.155 52.4918ZM269.565 52.3796H202.881C196.98 52.4702 191.35 54.8566 187.209 59.0236C183.068 63.1907 180.746 68.8042 180.746 74.6522C180.746 80.5002 183.068 86.1137 187.209 90.2807C191.35 94.4478 196.98 96.8342 202.881 96.9248H269.565C272.547 96.9705 275.508 96.4282 278.275 95.3294C281.043 94.2307 283.563 92.5974 285.688 90.5246C287.812 88.4519 289.5 85.9811 290.652 83.2562C291.803 80.5312 292.396 77.6064 292.396 74.6522C292.396 71.6979 291.803 68.7732 290.652 66.0482C289.5 63.3233 287.812 60.8525 285.688 58.7797C283.563 56.707 281.043 55.0737 278.275 53.9749C275.508 52.8762 272.547 52.3339 269.565 52.3796ZM82.8718 52.4918C78.4248 52.4907 74.0774 53.7962 70.3794 56.2432C66.6814 58.6902 63.7988 62.1688 62.0963 66.2389C60.3938 70.3091 59.9478 74.7881 60.8147 79.1094C61.6816 83.4307 63.8224 87.4003 66.9666 90.5161C70.1107 93.6319 74.1167 95.7539 78.4782 96.6138C82.8396 97.4738 87.3605 97.033 91.4691 95.3471C95.5776 93.6613 99.0893 90.8063 101.56 87.143C104.031 83.4798 105.349 79.1729 105.349 74.767C105.35 71.842 104.769 68.9456 103.64 66.243C102.511 63.5405 100.855 61.0849 98.7678 59.0164C96.6805 56.9478 94.2023 55.307 91.4749 54.1875C88.7474 53.068 85.8241 52.4918 82.8718 52.4918Z" fill="#e1e1e1"/>
<path d="M364.605 96.7807H383.611V52.6147H364.605L335.632 77.5549V52.6147H316.625V96.7807H335.632L364.605 71.8459V96.7807Z" fill="#e1e1e1"/>
<path d="M456.898 96.7807V52.6147H437.234V67.2905H410.094V52.6147H390.436V96.7807H410.094V81.32H437.234V96.7807H456.898Z" fill="#e1e1e1"/>
<path d="M530.196 96.7807V52.6147H510.527V67.2905H483.387V52.6147H463.723V96.7807H483.387V81.32H510.527V96.7807H530.196Z" fill="#e1e1e1"/>
<path d="M536.363 75.2208C536.363 91.0608 548.162 97.432 571.233 97.432H573.33C596.4 97.432 608.205 91.0608 608.205 75.2208V74.1794C608.205 58.3395 596.411 51.9683 573.33 51.9683H571.233C548.162 51.9683 536.363 58.3395 536.363 74.1794V75.2208ZM556.684 74.9591V74.4251C556.684 67.6106 561.864 64.9457 571.039 64.9457H573.529C582.693 64.9457 587.889 67.6159 587.889 74.4251V74.9591C587.889 81.779 582.709 84.4439 573.529 84.4439H571.039C561.864 84.4439 556.684 81.779 556.684 74.9591Z" fill="#e1e1e1"/>
<path d="M612.081 52.6147V66.9059H635.442V96.7807H655.101V66.9059H678.436V52.6147H612.081Z" fill="#e1e1e1"/>
<path d="M793.886 96.7807H819.253L796.614 74.3132L818.568 52.6254H794.457L783.138 65.0902L771.818 52.6147H746.451L768.282 75.2211L745.799 96.7807H769.915L781.909 84.1878L793.886 96.7807Z" fill="#e1e1e1"/>
<path d="M684.225 96.8607H742.053V84.914H703.943V79.4133H736.398V70.0674H703.943V64.5239H742.058V52.6787H684.225V96.8607Z" fill="#e1e1e1"/>
</svg>
